<svg width="827" height="273" viewBox="0 0 827 273" fill="none" xmlns="http://www.w3.org/2000/svg">
<path d="M56.3768 83.6198C57.0266 83.6151 57.6763 83.6104 58.3457 83.6056C60.5269 83.5936 62.7075 83.6031 64.8887 83.6125C66.4507 83.6085 68.0128 83.6031 69.5748 83.5966C73.8207 83.5829 78.0663 83.5882 82.3121 83.5977C86.751 83.6053 91.1899 83.5983 95.6288 83.5936C103.084 83.5881 110.539 83.5953 117.994 83.6096C126.618 83.6259 135.243 83.6206 143.867 83.6041C151.266 83.5905 158.665 83.5886 166.063 83.5964C170.485 83.6011 174.907 83.6017 179.328 83.5918C183.485 83.5832 187.641 83.5891 191.798 83.6065C193.325 83.6105 194.853 83.6093 196.38 83.6027C198.461 83.5945 200.542 83.6048 202.623 83.6198C204.372 83.6214 204.372 83.6214 206.156 83.6232C209 84.0007 209 84.0007 210.871 85.3097C212.805 88.2068 212.413 90.6405 212 94.0007C210.57 96.1941 210.57 96.1941 208 98.0007C204.814 98.5734 201.67 98.51 198.441 98.4695C197.501 98.4765 196.561 98.4836 195.592 98.4908C191.581 98.5202 187.571 98.5038 183.56 98.4914C167.639 98.4783 155.096 99.8984 141 108.001C140.505 108.496 140.505 108.496 140 109.001C140.618 109.007 141.235 109.012 141.871 109.018C148.295 109.082 154.719 109.167 161.143 109.263C163.54 109.296 165.938 109.324 168.336 109.347C171.782 109.381 175.227 109.433 178.672 109.489C180.281 109.499 180.281 109.499 181.924 109.508C182.924 109.528 183.925 109.548 184.956 109.568C185.835 109.579 186.715 109.591 187.621 109.602C190.538 110.091 191.914 110.916 194 113.001C194.782 118.472 194.782 118.472 194 121.001C191.213 123.813 189.581 124.922 185.619 125.459C184.328 125.441 183.037 125.423 181.706 125.404C180.99 125.4 180.274 125.396 179.536 125.391C177.986 125.381 176.437 125.361 174.887 125.334C172.426 125.293 169.967 125.282 167.506 125.279C160.511 125.267 153.517 125.215 146.523 125.114C142.238 125.054 137.954 125.039 133.668 125.05C132.043 125.046 130.418 125.025 128.794 124.986C120.564 124.794 114.413 124.759 107.925 130.561C106.576 132.003 105.251 133.472 104 135.001C104.676 135.004 105.351 135.008 106.048 135.012C113.088 135.054 120.129 135.123 127.169 135.208C129.795 135.236 132.422 135.258 135.049 135.272C138.827 135.293 142.605 135.34 146.383 135.391C147.555 135.393 148.727 135.394 149.935 135.395C156.153 135.506 160.382 135.606 165 140.001C165.687 142.938 165.687 142.938 165 146.001C162.339 149.401 160.897 150.851 156.583 151.573C154.62 151.537 154.62 151.537 152.618 151.501C151.892 151.496 151.166 151.49 150.418 151.485C148.845 151.47 147.273 151.444 145.7 151.409C143.196 151.355 140.693 151.338 138.188 151.33C131.068 151.303 123.949 151.222 116.83 151.094C112.467 151.017 108.105 150.992 103.741 150.994C102.094 150.986 100.446 150.959 98.7989 150.911C85.5565 150.535 77.5492 154.062 67 162.001C67.9981 162.01 67.9981 162.01 69.0164 162.018C75.9434 162.082 82.87 162.167 89.7966 162.263C92.3815 162.296 94.9665 162.324 97.5515 162.347C101.268 162.381 104.983 162.433 108.699 162.489C109.855 162.495 111.01 162.502 112.2 162.508C113.281 162.528 114.362 162.548 115.475 162.568C116.424 162.579 117.372 162.591 118.349 162.602C121.8 163.121 124.515 164.516 127 167.001C127.583 173.185 127.583 173.185 125.429 176.198C122.119 178.654 119.919 178.514 115.816 178.534C115.1 178.543 114.385 178.551 113.647 178.56C111.285 178.583 108.924 178.576 106.562 178.567C104.919 178.572 103.275 178.579 101.631 178.586C98.1878 178.596 94.745 178.592 91.3017 178.577C86.8895 178.56 82.4786 178.583 78.0665 178.619C74.6726 178.641 71.2791 178.639 67.8852 178.631C66.2585 178.63 64.6318 178.637 63.0051 178.652C60.7305 178.669 58.4582 178.655 56.1836 178.632C54.8899 178.631 53.5963 178.63 52.2634 178.629C49 178.001 49 178.001 46.5823 175.621C44.7992 172.668 44.308 171.374 45 168.001C47.5974 164.213 50.165 163.659 54.5117 162.759C61.5268 160.622 68.2045 156.439 74 152.001C72.9409 151.995 72.9409 151.995 71.8603 151.988C68.656 151.955 65.4537 151.885 62.25 151.813C60.5832 151.805 60.5832 151.805 58.8828 151.796C50.6813 151.573 50.6813 151.573 47.2344 148.676C45.5332 144.989 45.8568 142.859 47 139.001C48.8008 136.908 50.2546 136.095 52.9998 135.748C55.571 135.656 58.1266 135.665 60.6992 135.7C62.6504 135.692 64.6016 135.684 66.5527 135.675C69.616 135.677 72.6787 135.688 75.7419 135.716C78.7075 135.737 81.6712 135.72 84.6367 135.7C85.5402 135.718 86.4436 135.737 87.3744 135.756C95.142 135.667 100.227 132.653 105.752 127.304C106.164 126.874 106.576 126.444 107 126.001C106.269 125.997 105.538 125.992 104.784 125.988C101.46 125.955 98.1367 125.885 94.8125 125.813C93.0868 125.805 93.0868 125.805 91.3262 125.796C81.7928 125.547 81.7928 125.547 78.7383 122.641C77 120.001 77 120.001 76.375 116.938C77 114.001 77 114.001 78.8628 111.84C83.4771 109.135 87.5689 109.53 92.8203 109.637C94.987 109.638 97.1536 109.637 99.3203 109.635C102.717 109.656 106.113 109.688 109.51 109.736C127.146 110.334 127.146 110.334 142 102.001C143.656 100.984 145.322 99.9815 147 99.0007C145.19 98.9986 145.19 98.9986 143.344 98.9964C131.985 98.9797 120.625 98.937 109.266 98.8686C103.425 98.8343 97.5851 98.8092 91.7446 98.8051C86.1099 98.8009 80.4757 98.7725 74.8412 98.7273C72.6898 98.7143 70.5383 98.71 68.3869 98.7146C65.3768 98.7194 62.3683 98.6935 59.3584 98.6601C58.4657 98.6688 57.5731 98.6774 56.6534 98.6863C50.6329 98.5743 50.6329 98.5743 47.4112 95.6548C46 93.0007 46 93.0007 46.0625 89.8757C47.9564 84.0677 50.485 83.6255 56.3768 83.6198Z" fill="black"/>
<path d="M243 98.0006C248.439 100.297 252.535 103.557 255 109.001C255.85 114.99 255.42 119.871 252 125.001C249.937 127.376 249.937 127.376 248 129.001C247.34 129.001 246.68 129.001 246 129.001C246 131.311 246 133.621 246 136.001C246.943 135.98 247.886 135.959 248.858 135.937C252.371 135.869 255.884 135.819 259.397 135.781C260.915 135.761 262.433 135.734 263.951 135.699C266.138 135.65 268.324 135.628 270.512 135.61C272.483 135.579 272.483 135.579 274.495 135.546C278.567 136.074 280.205 137.033 283 140.001C283.562 143.501 283.562 143.501 283 147.001C280.918 149.699 279.871 149.807 276.5 150.5C275.515 150.521 274.55 150.478 273.536 150.5C272.466 150.532 271.318 150.467 270.215 150.5C269.104 150.514 268.145 150.485 267 150.5C265.873 150.53 264.161 150.469 263 150.5C260.221 150.571 255.279 150.463 252.5 150.5C247.5 154.999 247.853 160.5 248 161.5C250.311 162.501 268.944 162.403 272.062 162.501C275.902 162.684 278.654 162.838 281.812 165.126C284 168.001 284 168.001 284.125 171.626C282.883 175.351 282.307 176.096 279 178.001C276.449 178.345 276.449 178.345 273.536 178.306C272.44 178.3 271.344 178.294 270.215 178.288C269.033 178.269 267.851 178.25 266.633 178.231C264.112 178.229 261.591 178.228 259.07 178.229C255.109 178.215 251.15 178.188 247.189 178.135C226.18 177.76 226.18 177.76 208 187.001C206.346 187.698 204.68 188.369 203 189.001C203.703 189.004 204.406 189.008 205.13 189.012C211.766 189.05 218.401 189.106 225.037 189.184C228.448 189.224 231.858 189.256 235.27 189.272C239.194 189.29 243.118 189.34 247.043 189.391C248.874 189.393 248.874 189.393 250.743 189.395C251.884 189.415 253.025 189.434 254.2 189.455C255.201 189.464 256.203 189.472 257.235 189.482C260.765 190.144 262.469 191.492 265 194.001C265.562 197.001 265.562 197.001 265 200.001C262.873 202.767 261.692 203.875 258.22 204.504C257.144 204.505 256.068 204.507 254.958 204.509C253.72 204.52 252.482 204.531 251.207 204.543C249.838 204.535 248.468 204.527 247.099 204.518C245.655 204.524 244.211 204.531 242.767 204.539C238.848 204.558 234.929 204.551 231.01 204.538C226.91 204.528 222.81 204.537 218.71 204.543C211.826 204.551 204.942 204.541 198.058 204.522C190.095 204.5 182.132 204.507 174.17 204.529C167.335 204.548 160.501 204.55 153.667 204.54C149.584 204.533 145.502 204.533 141.419 204.546C137.581 204.557 133.744 204.549 129.907 204.526C128.497 204.521 127.088 204.522 125.678 204.531C123.757 204.542 121.836 204.526 119.915 204.509C118.3 204.506 118.3 204.506 116.654 204.504C114 204.001 114 204.001 112.158 202.156C110.569 199.197 110.517 197.312 111 194.001C112.574 191.839 112.574 191.839 115 190.001C118.29 189.535 118.29 189.535 122.253 189.582C122.977 189.584 123.701 189.587 124.448 189.589C126.02 189.597 127.592 189.613 129.163 189.637C131.668 189.673 134.171 189.68 136.676 189.68C143.798 189.682 150.918 189.728 158.039 189.812C162.401 189.861 166.762 189.87 171.125 189.856C172.772 189.859 174.418 189.876 176.065 189.909C189.928 190.187 200.399 186.735 212 179.001C210.867 178.995 210.867 178.995 209.711 178.99C202.589 178.952 195.468 178.895 188.347 178.817C184.686 178.777 181.025 178.745 177.364 178.73C173.83 178.714 170.296 178.68 166.763 178.632C164.76 178.61 162.757 178.608 160.754 178.606C159.533 178.587 158.312 178.567 157.054 178.546C155.979 178.538 154.904 178.529 153.797 178.52C150.321 177.875 149.13 176.775 147 174.001C146.5 171.001 146.5 171.001 147 168.001C148.565 165.84 148.565 165.84 151 164.001C153.63 163.633 155.836 163.506 158.459 163.566C159.204 163.567 159.949 163.568 160.717 163.569C162.332 163.573 163.946 163.586 165.561 163.606C168.116 163.638 170.671 163.641 173.227 163.637C180.492 163.631 187.756 163.671 195.02 163.736C199.466 163.774 203.912 163.778 208.358 163.761C210.052 163.762 211.746 163.776 213.439 163.804C215.808 163.842 218.172 163.837 220.541 163.824C221.59 163.857 221.59 163.857 222.66 163.891C224.886 163.923 224.886 163.923 228 163.001C230.948 159.587 230.677 160.2 232.205 156C231.316 156.017 233.111 151.017 232.205 151.034C226.041 151.145 219.877 151.22 213.712 151.275C211.411 151.3 209.11 151.335 206.81 151.378C203.503 151.438 200.198 151.467 196.891 151.489C195.347 151.528 195.347 151.528 193.772 151.567C186.634 151.57 186.634 151.57 183.354 148.626C181.811 145.633 181.258 144.297 182 141.001C184.058 138.099 185.681 136.255 189.269 135.563C192.115 135.421 194.921 135.439 197.77 135.512C198.806 135.519 199.842 135.526 200.909 135.534C204.211 135.562 207.511 135.624 210.812 135.688C213.054 135.713 215.296 135.736 217.537 135.756C223.025 135.812 228.513 135.895 234 136.001C234 133.691 234 131.381 234 129.001C233.257 128.774 232.515 128.547 231.75 128.313C227.909 126.48 225.885 123.771 224 120.001C223.314 114.936 222.833 110.053 225.422 105.501C230.374 99.7439 235.137 96.6189 243 98.0006Z" fill="black"/>
<path d="M99 133C100.906 133.859 100.906 133.859 103 135C105.623 135.299 105.623 135.299 108.5 135.255C109.601 135.262 110.702 135.269 111.837 135.276C113.023 135.275 114.208 135.274 115.43 135.273C117.941 135.294 120.453 135.315 122.965 135.336C126.924 135.359 130.882 135.375 134.841 135.381C138.663 135.39 142.483 135.424 146.305 135.461C148.077 135.453 148.077 135.453 149.885 135.446C156.127 135.52 160.37 135.575 165 140C165.687 142.938 165.687 142.938 165 146C162.339 149.401 160.897 150.85 156.583 151.572C155.275 151.548 153.966 151.525 152.618 151.501C151.892 151.495 151.166 151.49 150.418 151.484C148.845 151.469 147.273 151.444 145.7 151.408C143.196 151.355 140.693 151.337 138.188 151.329C131.068 151.302 123.949 151.222 116.83 151.093C112.467 151.017 108.105 150.991 103.741 150.994C102.094 150.985 100.446 150.958 98.7989 150.91C85.5565 150.534 77.5492 154.061 67 162C67.9981 162.009 67.9981 162.009 69.0164 162.018C75.9434 162.082 82.87 162.166 89.7966 162.262C92.3815 162.296 94.9665 162.324 97.5515 162.346C101.268 162.38 104.983 162.432 108.699 162.488C109.855 162.495 111.01 162.501 112.2 162.508C113.821 162.537 113.821 162.537 115.475 162.568C116.898 162.584 116.898 162.584 118.349 162.601C121.8 163.12 124.515 164.515 127 167C127.583 173.184 127.583 173.184 125.429 176.197C122.119 178.654 119.919 178.514 115.816 178.533C115.1 178.542 114.385 178.551 113.647 178.56C111.285 178.582 108.924 178.575 106.562 178.566C104.919 178.572 103.275 178.578 101.631 178.585C98.1878 178.596 94.745 178.591 91.3017 178.576C86.8895 178.559 82.4786 178.583 78.0665 178.618C74.6726 178.64 71.2791 178.638 67.8852 178.63C66.2585 178.629 64.6318 178.636 63.0051 178.651C60.7305 178.668 58.4582 178.654 56.1836 178.631C54.8899 178.63 53.5963 178.629 52.2634 178.628C49 178 49 178 46.5823 175.621C44.7992 172.667 44.308 171.374 45 168C47.5974 164.212 50.165 163.658 54.5117 162.758C61.5268 160.621 68.2045 156.439 74 152C73.2939 151.996 72.5878 151.992 71.8603 151.988C68.656 151.955 65.4537 151.884 62.25 151.812C60.5832 151.804 60.5832 151.804 58.8828 151.795C50.6813 151.573 50.6813 151.573 47.2344 148.676C45.5332 144.988 45.8568 142.858 47 139C48.8058 136.897 50.2864 136.098 53.0342 135.72C55.6516 135.588 58.2543 135.559 60.875 135.559C61.8365 135.545 62.7979 135.532 63.7886 135.519C66.8591 135.478 69.9293 135.456 73 135.438C76.0706 135.414 79.141 135.386 82.2114 135.346C84.1211 135.321 86.031 135.307 87.9409 135.302C88.8086 135.292 89.6763 135.282 90.5703 135.271C91.331 135.267 92.0917 135.263 92.8755 135.258C95.0741 135.128 95.0741 135.128 97.0268 133.858C97.678 133.575 98.3291 133.292 99 133Z" fill="black"/>
<path d="M63 162.001C63 162.661 63 163.321 63 164.001C63.7575 163.994 64.5151 163.987 65.2956 163.98C72.432 163.92 79.5682 163.875 86.7048 163.845C90.3739 163.83 94.0427 163.808 97.7117 163.774C101.252 163.742 104.792 163.724 108.332 163.716C110.341 163.708 112.351 163.684 114.36 163.661C116.191 163.66 116.191 163.66 118.06 163.66C119.675 163.65 119.675 163.65 121.323 163.64C124 164.001 124 164.001 125.844 165.307C127.817 168.197 127.414 170.628 127 174.001C125.422 176.19 125.422 176.19 123 178.001C119.737 178.515 119.737 178.515 115.816 178.534C115.1 178.543 114.385 178.551 113.647 178.56C111.285 178.583 108.924 178.576 106.562 178.567C104.919 178.572 103.275 178.579 101.631 178.586C98.1878 178.596 94.745 178.592 91.3017 178.577C86.8895 178.56 82.4786 178.583 78.0665 178.619C74.6726 178.641 71.2791 178.639 67.8852 178.631C66.2585 178.63 64.6318 178.637 63.0051 178.652C60.7305 178.669 58.4582 178.655 56.1836 178.632C54.8899 178.631 53.5963 178.63 52.2634 178.629C49 178.001 49 178.001 46.5823 175.621C44.7992 172.668 44.308 171.374 45 168.001C48.0936 163.489 51.9208 163.066 57 162.001C59.4909 160.755 60.4108 161.224 63 162.001Z" fill="black"/>
<path d="M309 43C310.32 43 311.64 43 313 43C313 104.05 313 165.1 313 228C311.68 228 310.36 228 309 228C309 166.95 309 105.9 309 43Z" fill="black"/>
<path d="M690.664 95.0595C690.833 95.5977 691.003 96.1359 691.177 96.6904C691.55 97.2633 691.923 97.8362 692.307 98.4265C693.943 98.7474 695.587 99.0268 697.236 99.2682C698.777 100.268 698.777 100.268 699.701 101.793C700.05 105.226 699.958 106.449 698.058 109.369C692.263 109.935 692.263 109.935 690.057 108.33C688.724 106.419 688.741 105.278 688.815 102.951C688.828 102.28 688.84 101.61 688.854 100.919C689.02 99.2682 689.02 99.2682 689.842 98.4265C687.892 98.0748 687.892 98.0748 685.734 98.4265C683.056 101.818 682.843 105.109 682.858 109.316C682.835 109.897 682.812 110.479 682.788 111.077C682.775 114.404 683.199 116.362 685.33 118.793C687.377 121.153 687.377 121.153 687.807 123.281C687.767 123.95 687.727 124.62 687.685 125.309C687.649 126.027 687.613 126.744 687.576 127.483C687.32 130.167 687.007 132.805 686.556 135.463C690.352 135.167 690.352 135.167 693.796 133.674C696.924 128.615 696.483 123.56 696.152 117.777C696.415 115.261 696.415 115.261 697.885 113.242C699.701 111.894 699.701 111.894 702.577 111.947C706.963 113.15 706.963 113.15 708.739 115.261C709.244 118.301 709.117 119.724 707.455 122.311C704.781 124.137 702.847 123.927 699.701 123.679C699.6 125.163 699.6 125.163 699.496 126.677C698.91 131.383 697.312 134.868 693.642 137.936C691.049 139.011 689.33 139.193 686.556 138.83C684.604 137.936 684.604 137.936 683.269 136.305C683.012 133.253 683.012 133.253 683.269 130.413C683.676 129.996 683.676 129.996 684.091 129.571C684.573 125.651 684.654 122.843 682.448 119.523C681.905 118.95 681.363 118.377 680.804 117.786C680.804 117.231 680.804 116.675 680.804 116.103C680.262 116.103 679.72 116.103 679.161 116.103C678.746 101.719 678.746 101.719 684.091 95.9013C686.316 94.7612 688.206 95.0048 690.664 95.0595Z" fill="black"/>
<path d="M676.747 122.275C679.299 123.997 679.299 123.997 681 126.325C681 128.907 681 128.907 680.149 131.185C676.985 133.194 675.388 133.18 671.643 132.805C669.57 131.488 669.57 131.488 668.241 129.565C667.855 126.995 667.79 125.463 669.144 123.187C671.813 121.711 673.73 121.879 676.747 122.275Z" fill="black"/>
<path d="M702.098 112.003C706.835 113.181 706.835 113.181 708.753 115.249C709.157 117.822 709.194 119.427 707.866 121.74C705.01 123.232 702.136 123.196 698.993 122.667C696.406 121.045 695.611 120.147 695 117.309C695.867 113.28 697.711 111.93 702.098 112.003Z" fill="black"/>
<path d="M50 150C58.91 150 67.82 150 77 150C77.33 151.65 77.66 153.3 78 155C74.37 157.31 70.74 159.62 67 162C84.82 162.33 102.64 162.66 121 163C121 163.33 121 163.66 121 164C101.86 164 82.72 164 63 164C62.34 162.68 61.68 161.36 61 160C61.8546 159.506 62.7093 159.013 63.5898 158.504C64.6946 157.863 65.7993 157.223 66.9375 156.562C68.0396 155.924 69.1418 155.286 70.2773 154.629C72.8284 153.253 72.8284 153.253 74 152C66.08 151.67 58.16 151.34 50 151C50 150.67 50 150.34 50 150Z" fill="black"/>
<path d="M669.314 104.07C672.26 104.806 672.26 104.806 673.891 105.881C675.235 108.347 675.111 110.156 674.786 112.954C673.944 114.652 673.944 114.652 672.26 115.671C669.938 116.092 667.845 116.127 665.526 115.671C663.789 114.256 663.789 114.256 663 112.049C663.105 108.767 663.105 108.767 663.842 105.711C666.367 103.9 666.367 103.9 669.314 104.07Z" fill="black"/>
<path d="M689.136 100.169C690.454 100.123 691.773 100.089 693.091 100.061C693.826 100.041 694.56 100.021 695.316 100C697.249 100.169 697.249 100.169 698.872 101.904C699.152 105.418 699.117 106.714 697.249 109.708C695.728 110.023 695.728 110.023 694.004 109.979C693.435 109.976 692.866 109.973 692.28 109.969C690.759 109.708 690.759 109.708 689.136 107.974C688.978 106.097 688.978 106.097 689.035 103.963C689.049 103.255 689.064 102.546 689.079 101.816C689.098 101.272 689.117 100.729 689.136 100.169Z" fill="black"/>
<path d="M696.908 121C699.578 121.56 702.249 122.121 705 122.698C705 122.978 705 123.258 705 123.547C703.131 123.547 701.262 123.547 699.336 123.547C699.269 124.545 699.202 125.543 699.133 126.571C698.556 131.318 696.982 134.833 693.368 137.926C690.814 139.011 689.121 139.194 686.389 138.828C684.467 137.82 684.467 137.82 683.152 136.282C682.949 134 682.949 134 683.152 132.037C683.686 131.756 684.22 131.476 684.77 131.188C685.304 132.588 685.838 133.989 686.389 135.433C690.077 135.181 690.077 135.181 693.368 133.628C694.962 131.348 695.3 129.114 695.846 126.359C696.049 125.358 696.253 124.356 696.462 123.325C696.609 122.558 696.757 121.79 696.908 121Z" fill="black"/>
<path d="M690.298 95.0287C690.471 95.5661 690.644 96.1036 690.822 96.6573C691.886 98.6846 691.886 98.6846 694.591 99.0215C695.386 99.0909 696.181 99.1602 697 99.2317C696.447 99.7865 695.894 100.341 695.325 100.913C692.288 100.598 692.288 100.598 689.46 100.072C689.46 102.291 689.46 104.511 689.46 106.797C689.184 106.797 688.907 106.797 688.623 106.797C688.6 105.554 688.584 104.31 688.57 103.067C688.56 102.374 688.551 101.682 688.541 100.969C688.623 99.2317 688.623 99.2317 689.46 98.3911C688.078 98.3911 686.696 98.3911 685.272 98.3911C682.468 102.746 681.445 105.828 681.083 111C680.53 111 679.977 111 679.407 111C678.686 102.107 678.686 102.107 681.397 98.286C684.488 94.8891 685.837 94.9314 690.298 95.0287Z" fill="black"/>
<path d="M215 180C215 180.99 215 181.98 215 183C213.044 184.005 211.085 185.004 209.125 186C208.034 186.557 206.944 187.114 205.82 187.688C203 189 203 189 201 189C201 187.68 201 186.36 201 185C202.764 183.967 204.536 182.949 206.312 181.938C207.299 181.37 208.285 180.801 209.301 180.215C212 179 212 179 215 180Z" fill="black"/>
<path d="M149.266 99.8517C149.838 100.231 150.41 100.61 151 101C151 101.66 151 102.32 151 103C148.03 104.32 145.06 105.64 142 107C141.01 106.01 140.02 105.02 139 104C140.236 103.106 141.49 102.235 142.75 101.375C143.446 100.888 144.142 100.401 144.859 99.8986C147 99.0001 147 99.0001 149.266 99.8517Z" fill="black"/>
<path d="M687.833 95C689.043 95.5657 690.253 96.1314 691.5 96.7143C691.5 97.28 691.5 97.8457 691.5 98.4286C694.223 98.8529 694.223 98.8529 697 99.2857C696.395 99.8514 695.79 100.417 695.167 101C691.844 100.679 691.844 100.679 688.75 100.143C688.75 102.406 688.75 104.669 688.75 107C688.448 107 688.145 107 687.833 107C687.809 105.732 687.791 104.464 687.776 103.196C687.765 102.49 687.755 101.784 687.744 101.057C687.833 99.2857 687.833 99.2857 688.75 98.4286C687.843 97.8629 686.935 97.2971 686 96.7143C686.605 96.7143 687.21 96.7143 687.833 96.7143C687.833 96.1486 687.833 95.5829 687.833 95Z" fill="black"/>
<path d="M696.667 121C699.417 121.55 702.167 122.1 705 122.667C705 122.942 705 123.217 705 123.5C703.075 123.5 701.15 123.5 699.167 123.5C698.892 125.7 698.617 127.9 698.333 130.167C697.233 130.442 696.133 130.717 695 131C695.55 127.7 696.1 124.4 696.667 121Z" fill="black"/>
<path d="M696.222 130C696.479 131.056 696.736 132.112 697 133.2C695.201 135.8 695.201 135.8 693.111 138C692.598 138 692.084 138 691.556 138C691.556 137.472 691.556 136.944 691.556 136.4C691.042 136.136 690.529 135.872 690 135.6C692.053 133.752 694.107 131.904 696.222 130Z" fill="black"/>
<path d="M234 151C235.32 151.33 236.64 151.66 238 152C237.453 155.375 236.945 157.082 235 160C235 159.34 235 158.68 235 158C234.01 158.33 233.02 158.66 232 159C232.523 156.237 233.109 153.674 234 151Z" fill="black"/>
<path d="M680.679 112C680.938 112.696 680.938 112.696 681.202 113.406C682.193 115.521 682.193 115.521 684.195 117.521C686 119.5 686 119.5 686 121.167C685.247 121.442 684.495 121.717 683.72 122C679.874 116.938 679.874 116.938 680.062 113.719C680.265 113.152 680.469 112.584 680.679 112Z" fill="black"/>
<path d="M107 129C107.33 129.99 107.66 130.98 108 132C105.525 133.485 105.525 133.485 103 135C102.01 134.01 101.02 133.02 100 132C103.625 129 103.625 129 107 129Z" fill="black"/>
<path d="M51.25 164.25C52.1162 164.621 52.1162 164.621 53 165C51.5026 166.204 50.0052 167.409 48.5078 168.613C46.747 170.123 46.747 170.123 45 173C44.6299 169.669 44.7254 168.373 46.75 165.625C49 164 49 164 51.25 164.25Z" fill="black"/>
<path d="M687.8 95C688.988 95.5084 690.176 96.0169 691.4 96.5408C691.4 97.0492 691.4 97.5577 691.4 98.0815C692.588 98.3357 693.776 98.59 695 98.8519C689.129 99.1363 689.129 99.1363 686.956 97.6963C686.483 97.1243 686.483 97.1243 686 96.5408C686.594 96.5408 687.188 96.5408 687.8 96.5408C687.8 96.0323 687.8 95.5239 687.8 95Z" fill="black"/>
<path d="M688 95C688 95.528 688 96.056 688 96.6C684.868 99 684.868 99 683 99C683.268 97.45 683.268 97.45 683.714 95.8C685.143 95 685.143 95 688 95Z" fill="black"/>
<path d="M684.509 123C684.757 123 685.006 123 685.263 123C685.431 124.355 685.586 125.713 685.734 127.071C685.822 127.827 685.909 128.583 685.999 129.362C686.019 131.767 685.601 132.972 684.509 135C684.011 133.586 683.513 132.171 683 130.714C683.249 130.431 683.498 130.149 683.754 129.857C683.928 128.702 684.065 127.54 684.179 126.375C684.287 125.261 684.396 124.148 684.509 123Z" fill="black"/>
<path d="M350.531 93.5V139H344.844V93.5H350.531ZM362.5 93.5V98.4375H332.906V93.5H362.5ZM389.789 97.5312L377.351 139H371.476L386.132 93.5H389.82L389.789 97.5312ZM399.851 139L387.414 97.5312L387.351 93.5H391.07L405.726 139H399.851ZM399.851 122.156V127.094H377.914V122.156H399.851ZM443.89 134.094V139H425.015V134.094H443.89ZM426.046 93.5V139H420.296V93.5H426.046ZM483.522 134.094V139H463.772V134.094H483.522ZM464.804 93.5V139H459.054V93.5H464.804ZM480.866 113.062V117.969H463.772V113.062H480.866ZM483.21 93.5V98.4375H463.772V93.5H483.21ZM528.936 93.5V139H523.155L504.936 103.906V139H499.186V93.5H504.936L523.249 128.688V93.5H528.936ZM560.881 93.5V139H555.194V93.5H560.881ZM572.85 93.5V98.4375H543.256V93.5H572.85ZM615.396 93.5V139H609.646V93.5H615.396ZM630.74 113.969V118.906H614.302V113.969H630.74ZM633.334 93.5V98.4375H614.302V93.5H633.334ZM672.372 134.094V139H653.497V134.094H672.372ZM654.529 93.5V139H648.779V93.5H654.529ZM720.763 125.25L728.044 93.5H732.138L729.981 105.844L722.075 139H717.981L720.763 125.25ZM713.575 93.5L719.263 124.625L720.95 139H716.919L707.856 93.5H713.575ZM741.419 124.594L746.981 93.5H752.7L743.669 139H739.638L741.419 124.594ZM732.794 93.5L739.856 125.25L742.575 139H738.481L730.919 105.844L728.763 93.5H732.794Z" fill="black"/>
<path d="M347.276 185.249L352.487 164.697H356.53L349.32 189H346.692L347.276 185.249ZM343.076 164.697L348.512 185.361L348.938 189H346.333L339.033 164.697H343.076ZM361.711 164.697V189H357.758V164.697H361.711ZM357.533 158.251C357.533 157.577 357.72 157.008 358.094 156.544C358.469 156.08 359.03 155.848 359.779 155.848C360.528 155.848 361.089 156.08 361.464 156.544C361.853 157.008 362.048 157.577 362.048 158.251C362.048 158.895 361.853 159.449 361.464 159.913C361.089 160.362 360.528 160.587 359.779 160.587C359.03 160.587 358.469 160.362 358.094 159.913C357.72 159.449 357.533 158.895 357.533 158.251ZM376.572 182.778C376.572 182.164 376.422 181.625 376.122 181.161C375.823 180.697 375.329 180.248 374.64 179.813C373.966 179.379 373.053 178.915 371.9 178.421C370.777 177.957 369.766 177.5 368.868 177.051C367.984 176.587 367.235 176.085 366.622 175.546C366.008 175.007 365.536 174.385 365.206 173.682C364.892 172.963 364.735 172.117 364.735 171.144C364.735 170.17 364.914 169.272 365.274 168.448C365.648 167.61 366.172 166.876 366.846 166.247C367.52 165.618 368.329 165.132 369.272 164.787C370.215 164.428 371.271 164.248 372.439 164.248C374.101 164.248 375.516 164.57 376.684 165.214C377.852 165.858 378.743 166.741 379.357 167.864C379.986 168.972 380.3 170.223 380.3 171.615H376.347C376.347 170.941 376.197 170.305 375.898 169.706C375.598 169.107 375.157 168.62 374.573 168.246C373.989 167.857 373.277 167.662 372.439 167.662C371.555 167.662 370.837 167.819 370.283 168.134C369.729 168.448 369.324 168.86 369.07 169.369C368.83 169.863 368.71 170.41 368.71 171.009C368.71 171.458 368.77 171.847 368.89 172.177C369.025 172.491 369.249 172.791 369.564 173.075C369.878 173.345 370.305 173.629 370.844 173.929C371.398 174.213 372.102 174.543 372.956 174.917C374.603 175.561 375.988 176.212 377.111 176.871C378.234 177.53 379.087 178.301 379.671 179.185C380.255 180.068 380.547 181.161 380.547 182.464C380.547 183.527 380.353 184.493 379.963 185.361C379.589 186.215 379.05 186.949 378.346 187.562C377.642 188.176 376.796 188.648 375.808 188.978C374.835 189.292 373.742 189.449 372.529 189.449C370.702 189.449 369.152 189.09 367.879 188.371C366.622 187.637 365.663 186.687 365.004 185.519C364.36 184.336 364.039 183.07 364.039 181.723H368.014C368.059 182.861 368.314 183.744 368.778 184.373C369.257 185.002 369.833 185.436 370.507 185.676C371.181 185.915 371.855 186.035 372.529 186.035C373.412 186.035 374.153 185.908 374.752 185.653C375.351 185.384 375.801 185.002 376.1 184.508C376.414 184.014 376.572 183.437 376.572 182.778ZM394.824 183.385V164.697H398.8V189H395.027L394.824 183.385ZM395.566 178.264L397.138 178.219C397.138 179.836 396.996 181.333 396.711 182.711C396.442 184.074 395.992 185.257 395.363 186.26C394.75 187.263 393.933 188.049 392.915 188.618C391.897 189.172 390.647 189.449 389.164 189.449C388.161 189.449 387.248 189.277 386.424 188.933C385.615 188.588 384.912 188.057 384.313 187.338C383.729 186.619 383.272 185.683 382.943 184.53C382.628 183.377 382.471 181.992 382.471 180.375V164.697H386.424V180.42C386.424 181.513 386.521 182.419 386.716 183.138C386.911 183.841 387.173 184.403 387.502 184.822C387.832 185.227 388.198 185.511 388.603 185.676C389.007 185.84 389.419 185.923 389.838 185.923C391.246 185.923 392.369 185.586 393.207 184.912C394.046 184.223 394.645 183.302 395.004 182.149C395.378 180.981 395.566 179.686 395.566 178.264ZM413.459 184.845V171.66C413.459 170.702 413.309 169.931 413.01 169.347C412.725 168.763 412.291 168.336 411.707 168.066C411.138 167.797 410.419 167.662 409.551 167.662C408.712 167.662 407.986 167.834 407.372 168.179C406.773 168.523 406.309 168.98 405.979 169.549C405.665 170.118 405.508 170.747 405.508 171.436H401.532C401.532 170.567 401.719 169.706 402.094 168.853C402.483 167.999 403.037 167.228 403.756 166.539C404.474 165.835 405.335 165.281 406.339 164.877C407.357 164.458 408.495 164.248 409.753 164.248C411.25 164.248 412.575 164.495 413.728 164.989C414.881 165.468 415.787 166.255 416.446 167.348C417.105 168.441 417.434 169.893 417.434 171.705V183.699C417.434 184.508 417.494 185.369 417.614 186.282C417.749 187.196 417.936 187.982 418.176 188.641V189H414.065C413.871 188.521 413.721 187.884 413.616 187.091C413.511 186.282 413.459 185.534 413.459 184.845ZM414.088 174.266L414.133 177.186H411.37C410.427 177.186 409.566 177.29 408.787 177.5C408.023 177.71 407.364 178.017 406.81 178.421C406.256 178.81 405.83 179.297 405.53 179.881C405.246 180.465 405.103 181.131 405.103 181.88C405.103 182.853 405.238 183.632 405.508 184.216C405.777 184.785 406.182 185.197 406.721 185.451C407.26 185.706 407.941 185.833 408.765 185.833C409.768 185.833 410.651 185.601 411.415 185.137C412.179 184.673 412.77 184.111 413.189 183.452C413.624 182.793 413.826 182.179 413.796 181.61L414.672 183.475C414.612 184.059 414.417 184.695 414.088 185.384C413.773 186.058 413.332 186.709 412.763 187.338C412.194 187.952 411.52 188.461 410.741 188.865C409.977 189.255 409.116 189.449 408.158 189.449C406.751 189.449 405.515 189.18 404.452 188.641C403.404 188.102 402.588 187.308 402.004 186.26C401.42 185.212 401.128 183.916 401.128 182.374C401.128 181.206 401.33 180.128 401.734 179.14C402.139 178.151 402.738 177.298 403.531 176.579C404.325 175.845 405.321 175.276 406.518 174.872C407.731 174.468 409.131 174.266 410.719 174.266H414.088ZM424.659 154.5V189H420.706V154.5H424.659ZM440.792 189H436.816V162.137C436.816 160.385 437.101 158.91 437.67 157.712C438.239 156.499 439.07 155.586 440.163 154.972C441.256 154.343 442.574 154.028 444.116 154.028C444.655 154.028 445.352 154.096 446.205 154.23C447.059 154.365 447.98 154.537 448.968 154.747C449.956 154.957 450.914 155.174 451.843 155.398L450.068 158.408C448.826 158.139 447.725 157.937 446.767 157.802C445.823 157.652 445.045 157.577 444.431 157.577C443.637 157.577 442.963 157.757 442.409 158.116C441.87 158.461 441.466 158.97 441.196 159.644C440.927 160.317 440.792 161.148 440.792 162.137V189ZM447.89 189V155.398H451.843V189H447.89ZM444.925 164.697V167.887H433.649V164.697H444.925ZM454.238 178.017V175.703C454.238 173.816 454.478 172.162 454.957 170.739C455.436 169.302 456.102 168.104 456.956 167.146C457.809 166.187 458.805 165.468 459.943 164.989C461.081 164.495 462.302 164.248 463.604 164.248C464.937 164.248 466.172 164.495 467.31 164.989C468.448 165.468 469.444 166.187 470.298 167.146C471.166 168.104 471.84 169.302 472.319 170.739C472.798 172.162 473.038 173.816 473.038 175.703V178.017C473.038 179.903 472.798 181.565 472.319 183.003C471.84 184.425 471.174 185.616 470.32 186.574C469.467 187.533 468.471 188.251 467.333 188.73C466.195 189.21 464.967 189.449 463.649 189.449C462.331 189.449 461.104 189.21 459.966 188.73C458.828 188.251 457.824 187.533 456.956 186.574C456.102 185.616 455.436 184.425 454.957 183.003C454.478 181.565 454.238 179.903 454.238 178.017ZM458.214 175.703V178.017C458.214 179.349 458.348 180.517 458.618 181.521C458.887 182.524 459.269 183.362 459.763 184.036C460.258 184.71 460.834 185.219 461.493 185.563C462.152 185.893 462.871 186.058 463.649 186.058C464.548 186.058 465.334 185.893 466.008 185.563C466.696 185.219 467.265 184.71 467.715 184.036C468.164 183.362 468.501 182.524 468.725 181.521C468.95 180.517 469.062 179.349 469.062 178.017V175.703C469.062 174.37 468.927 173.21 468.658 172.222C468.388 171.218 468.007 170.38 467.512 169.706C467.018 169.017 466.434 168.508 465.761 168.179C465.102 167.834 464.383 167.662 463.604 167.662C462.841 167.662 462.129 167.834 461.47 168.179C460.812 168.508 460.235 169.017 459.741 169.706C459.262 170.38 458.887 171.218 458.618 172.222C458.348 173.21 458.214 174.37 458.214 175.703ZM479.925 184.688L485.293 164.697H487.876L487.584 168.673L482.194 189H479.701L479.925 184.688ZM477.005 164.697L481.52 184.912L481.632 189H479.004L473.075 164.697H477.005ZM492.481 184.755L496.749 164.697H500.657L494.727 189H492.144L492.481 184.755ZM488.438 164.697L493.671 184.351L494.031 189H491.56L485.99 168.628L485.698 164.697H488.438ZM513.429 182.778C513.429 182.164 513.279 181.625 512.98 181.161C512.68 180.697 512.186 180.248 511.497 179.813C510.823 179.379 509.91 178.915 508.757 178.421C507.634 177.957 506.623 177.5 505.725 177.051C504.841 176.587 504.093 176.085 503.479 175.546C502.865 175.007 502.393 174.385 502.064 173.682C501.749 172.963 501.592 172.117 501.592 171.144C501.592 170.17 501.772 169.272 502.131 168.448C502.505 167.61 503.029 166.876 503.703 166.247C504.377 165.618 505.186 165.132 506.129 164.787C507.072 164.428 508.128 164.248 509.296 164.248C510.958 164.248 512.373 164.57 513.541 165.214C514.709 165.858 515.6 166.741 516.214 167.864C516.843 168.972 517.157 170.223 517.157 171.615H513.204C513.204 170.941 513.055 170.305 512.755 169.706C512.456 169.107 512.014 168.62 511.43 168.246C510.846 167.857 510.135 167.662 509.296 167.662C508.413 167.662 507.694 167.819 507.14 168.134C506.586 168.448 506.182 168.86 505.927 169.369C505.687 169.863 505.568 170.41 505.568 171.009C505.568 171.458 505.627 171.847 505.747 172.177C505.882 172.491 506.107 172.791 506.421 173.075C506.736 173.345 507.162 173.629 507.701 173.929C508.255 174.213 508.959 174.543 509.813 174.917C511.46 175.561 512.845 176.212 513.968 176.871C515.091 177.53 515.945 178.301 516.529 179.185C517.113 180.068 517.404 181.161 517.404 182.464C517.404 183.527 517.21 184.493 516.821 185.361C516.446 186.215 515.907 186.949 515.203 187.562C514.5 188.176 513.654 188.648 512.665 188.978C511.692 189.292 510.599 189.449 509.386 189.449C507.559 189.449 506.009 189.09 504.737 188.371C503.479 187.637 502.52 186.687 501.862 185.519C501.218 184.336 500.896 183.07 500.896 181.723H504.871C504.916 182.861 505.171 183.744 505.635 184.373C506.114 185.002 506.691 185.436 507.364 185.676C508.038 185.915 508.712 186.035 509.386 186.035C510.269 186.035 511.011 185.908 511.61 185.653C512.209 185.384 512.658 185.002 512.957 184.508C513.272 184.014 513.429 183.437 513.429 182.778ZM523.349 184.059V187.405C523.349 188.768 523.004 190.205 522.315 191.718C521.627 193.245 520.661 194.518 519.418 195.536L517.059 193.896C517.539 193.238 517.943 192.564 518.272 191.875C518.602 191.201 518.849 190.497 519.014 189.764C519.193 189.045 519.283 188.281 519.283 187.473V184.059H523.349ZM544.378 182.778C544.378 182.164 544.229 181.625 543.929 181.161C543.63 180.697 543.135 180.248 542.447 179.813C541.773 179.379 540.859 178.915 539.706 178.421C538.583 177.957 537.573 177.5 536.674 177.051C535.791 176.587 535.042 176.085 534.428 175.546C533.814 175.007 533.342 174.385 533.013 173.682C532.699 172.963 532.541 172.117 532.541 171.144C532.541 170.17 532.721 169.272 533.08 168.448C533.455 167.61 533.979 166.876 534.653 166.247C535.327 165.618 536.135 165.132 537.078 164.787C538.022 164.428 539.077 164.248 540.245 164.248C541.908 164.248 543.323 164.57 544.491 165.214C545.659 165.858 546.55 166.741 547.163 167.864C547.792 168.972 548.107 170.223 548.107 171.615H544.154C544.154 170.941 544.004 170.305 543.704 169.706C543.405 169.107 542.963 168.62 542.379 168.246C541.795 167.857 541.084 167.662 540.245 167.662C539.362 167.662 538.643 167.819 538.089 168.134C537.535 168.448 537.131 168.86 536.876 169.369C536.637 169.863 536.517 170.41 536.517 171.009C536.517 171.458 536.577 171.847 536.697 172.177C536.831 172.491 537.056 172.791 537.37 173.075C537.685 173.345 538.112 173.629 538.651 173.929C539.205 174.213 539.909 174.543 540.762 174.917C542.409 175.561 543.794 176.212 544.917 176.871C546.04 177.53 546.894 178.301 547.478 179.185C548.062 180.068 548.354 181.161 548.354 182.464C548.354 183.527 548.159 184.493 547.77 185.361C547.396 186.215 546.856 186.949 546.153 187.562C545.449 188.176 544.603 188.648 543.615 188.978C542.641 189.292 541.548 189.449 540.335 189.449C538.508 189.449 536.959 189.09 535.686 188.371C534.428 187.637 533.47 186.687 532.811 185.519C532.167 184.336 531.845 183.07 531.845 181.723H535.821C535.866 182.861 536.12 183.744 536.584 184.373C537.064 185.002 537.64 185.436 538.314 185.676C538.988 185.915 539.661 186.035 540.335 186.035C541.219 186.035 541.96 185.908 542.559 185.653C543.158 185.384 543.607 185.002 543.907 184.508C544.221 184.014 544.378 183.437 544.378 182.778ZM554.32 169.526V189H550.367V164.697H554.096L554.32 169.526ZM553.512 175.928L551.67 175.86C551.655 174.198 551.82 172.663 552.164 171.256C552.509 169.833 553.025 168.598 553.714 167.55C554.418 166.502 555.294 165.693 556.342 165.124C557.405 164.54 558.64 164.248 560.048 164.248C560.976 164.248 561.837 164.413 562.631 164.742C563.44 165.057 564.143 165.558 564.742 166.247C565.341 166.936 565.805 167.819 566.135 168.897C566.479 169.976 566.651 171.278 566.651 172.806V189H562.676V173.008C562.676 171.735 562.504 170.717 562.159 169.953C561.83 169.189 561.358 168.635 560.744 168.291C560.13 167.932 559.397 167.752 558.543 167.752C557.57 167.752 556.754 167.969 556.095 168.403C555.451 168.838 554.934 169.437 554.545 170.2C554.171 170.964 553.901 171.84 553.736 172.828C553.587 173.801 553.512 174.835 553.512 175.928ZM566.607 173.637L563.956 174.49C563.941 173.158 564.106 171.877 564.45 170.649C564.795 169.422 565.304 168.328 565.978 167.37C566.666 166.412 567.52 165.656 568.538 165.102C569.556 164.533 570.739 164.248 572.087 164.248C573.195 164.248 574.176 164.42 575.029 164.765C575.883 165.109 576.602 165.641 577.186 166.359C577.785 167.063 578.234 167.969 578.533 169.077C578.833 170.185 578.982 171.503 578.982 173.03V189H575.007V172.985C575.007 171.623 574.835 170.567 574.49 169.818C574.161 169.055 573.689 168.523 573.075 168.224C572.461 167.909 571.728 167.752 570.874 167.752C570.185 167.752 569.571 167.909 569.032 168.224C568.508 168.538 568.066 168.972 567.707 169.526C567.348 170.065 567.071 170.687 566.876 171.391C566.696 172.094 566.607 172.843 566.607 173.637ZM593.664 184.845V171.66C593.664 170.702 593.514 169.931 593.215 169.347C592.93 168.763 592.496 168.336 591.912 168.066C591.343 167.797 590.624 167.662 589.756 167.662C588.917 167.662 588.191 167.834 587.577 168.179C586.978 168.523 586.514 168.98 586.184 169.549C585.87 170.118 585.713 170.747 585.713 171.436H581.737C581.737 170.567 581.924 169.706 582.299 168.853C582.688 167.999 583.242 167.228 583.961 166.539C584.679 165.835 585.54 165.281 586.544 164.877C587.562 164.458 588.7 164.248 589.958 164.248C591.455 164.248 592.78 164.495 593.933 164.989C595.086 165.468 595.992 166.255 596.651 167.348C597.31 168.441 597.639 169.893 597.639 171.705V183.699C597.639 184.508 597.699 185.369 597.819 186.282C597.954 187.196 598.141 187.982 598.381 188.641V189H594.27C594.076 188.521 593.926 187.884 593.821 187.091C593.716 186.282 593.664 185.534 593.664 184.845ZM594.293 174.266L594.338 177.186H591.575C590.632 177.186 589.771 177.29 588.992 177.5C588.228 177.71 587.569 178.017 587.015 178.421C586.461 178.81 586.035 179.297 585.735 179.881C585.451 180.465 585.308 181.131 585.308 181.88C585.308 182.853 585.443 183.632 585.713 184.216C585.982 184.785 586.387 185.197 586.926 185.451C587.465 185.706 588.146 185.833 588.97 185.833C589.973 185.833 590.856 185.601 591.62 185.137C592.384 184.673 592.975 184.111 593.394 183.452C593.829 182.793 594.031 182.179 594.001 181.61L594.877 183.475C594.817 184.059 594.622 184.695 594.293 185.384C593.978 186.058 593.537 186.709 592.968 187.338C592.399 187.952 591.725 188.461 590.946 188.865C590.182 189.255 589.321 189.449 588.363 189.449C586.956 189.449 585.72 189.18 584.657 188.641C583.609 188.102 582.793 187.308 582.209 186.26C581.625 185.212 581.333 183.916 581.333 182.374C581.333 181.206 581.535 180.128 581.939 179.14C582.344 178.151 582.943 177.298 583.736 176.579C584.53 175.845 585.526 175.276 586.723 174.872C587.936 174.468 589.336 174.266 590.924 174.266H594.293ZM604.572 168.516V189H600.596V164.697H604.437L604.572 168.516ZM610.614 164.562L610.636 168.426C610.307 168.351 610.007 168.306 609.738 168.291C609.483 168.261 609.184 168.246 608.839 168.246C608.091 168.246 607.432 168.396 606.863 168.695C606.309 168.995 605.83 169.414 605.425 169.953C605.021 170.492 604.699 171.136 604.46 171.885C604.22 172.618 604.055 173.427 603.965 174.311L602.932 174.984C602.932 173.517 603.044 172.139 603.269 170.852C603.509 169.564 603.876 168.426 604.37 167.438C604.864 166.434 605.493 165.656 606.256 165.102C607.035 164.533 607.963 164.248 609.042 164.248C609.281 164.248 609.573 164.285 609.918 164.36C610.277 164.42 610.509 164.488 610.614 164.562ZM621.387 164.697V167.887H610.044V164.697H621.387ZM613.75 158.79H617.726V182.98C617.726 183.804 617.823 184.425 618.018 184.845C618.227 185.264 618.49 185.541 618.804 185.676C619.118 185.811 619.455 185.878 619.815 185.878C620.084 185.878 620.384 185.848 620.713 185.788C621.043 185.713 621.267 185.653 621.387 185.608L621.365 189C621.095 189.105 620.736 189.202 620.286 189.292C619.837 189.397 619.268 189.449 618.579 189.449C617.726 189.449 616.932 189.247 616.198 188.843C615.465 188.438 614.873 187.765 614.424 186.821C613.975 185.863 613.75 184.575 613.75 182.958V158.79ZM631.599 189.449C630.146 189.449 628.836 189.232 627.668 188.798C626.5 188.364 625.504 187.705 624.681 186.821C623.857 185.923 623.228 184.792 622.794 183.43C622.36 182.067 622.143 180.457 622.143 178.601V175.86C622.143 173.719 622.39 171.907 622.884 170.425C623.393 168.942 624.074 167.752 624.928 166.854C625.781 165.94 626.747 165.281 627.825 164.877C628.903 164.458 630.011 164.248 631.149 164.248C632.677 164.248 633.979 164.495 635.058 164.989C636.136 165.483 637.012 166.217 637.686 167.19C638.359 168.164 638.853 169.362 639.168 170.784C639.497 172.207 639.662 173.846 639.662 175.703V178.017H624.478V174.625H635.686V174.063C635.627 172.806 635.454 171.698 635.17 170.739C634.9 169.781 634.451 169.032 633.822 168.493C633.193 167.939 632.302 167.662 631.149 167.662C630.416 167.662 629.734 167.789 629.105 168.044C628.492 168.284 627.96 168.71 627.511 169.324C627.076 169.923 626.732 170.754 626.478 171.817C626.238 172.881 626.118 174.228 626.118 175.86V178.601C626.118 179.903 626.238 181.026 626.478 181.97C626.732 182.898 627.099 183.669 627.578 184.283C628.072 184.882 628.671 185.331 629.375 185.631C630.094 185.915 630.91 186.058 631.823 186.058C633.156 186.058 634.256 185.803 635.125 185.294C635.993 184.77 636.75 184.104 637.394 183.295L639.482 185.788C639.048 186.402 638.479 186.993 637.775 187.562C637.087 188.117 636.233 188.573 635.215 188.933C634.212 189.277 633.006 189.449 631.599 189.449ZM645.224 168.516V189H641.249V164.697H645.09L645.224 168.516ZM651.266 164.562L651.289 168.426C650.959 168.351 650.66 168.306 650.39 168.291C650.136 168.261 649.836 168.246 649.492 168.246C648.743 168.246 648.084 168.396 647.515 168.695C646.961 168.995 646.482 169.414 646.078 169.953C645.674 170.492 645.352 171.136 645.112 171.885C644.872 172.618 644.708 173.427 644.618 174.311L643.585 174.984C643.585 173.517 643.697 172.139 643.922 170.852C644.161 169.564 644.528 168.426 645.022 167.438C645.516 166.434 646.145 165.656 646.909 165.102C647.688 164.533 648.616 164.248 649.694 164.248C649.934 164.248 650.226 164.285 650.57 164.36C650.929 164.42 651.161 164.488 651.266 164.562ZM663.357 154.5V189H659.381V154.5H663.357ZM662.391 175.928L660.774 175.86C660.759 174.198 660.946 172.663 661.335 171.256C661.739 169.833 662.308 168.598 663.042 167.55C663.791 166.502 664.682 165.693 665.715 165.124C666.748 164.54 667.894 164.248 669.151 164.248C670.14 164.248 671.038 164.413 671.847 164.742C672.655 165.057 673.344 165.566 673.913 166.27C674.482 166.973 674.916 167.887 675.216 169.01C675.53 170.118 675.688 171.473 675.688 173.075V189H671.712V173.03C671.712 171.757 671.57 170.739 671.285 169.976C671.016 169.197 670.596 168.635 670.027 168.291C669.473 167.932 668.77 167.752 667.916 167.752C667.137 167.752 666.411 167.969 665.737 168.403C665.064 168.838 664.472 169.437 663.963 170.2C663.469 170.964 663.08 171.84 662.795 172.828C662.526 173.801 662.391 174.835 662.391 175.928ZM682.665 164.697V189H678.712V164.697H682.665ZM678.487 158.251C678.487 157.577 678.674 157.008 679.049 156.544C679.423 156.08 679.985 155.848 680.733 155.848C681.482 155.848 682.043 156.08 682.418 156.544C682.807 157.008 683.002 157.577 683.002 158.251C683.002 158.895 682.807 159.449 682.418 159.913C682.043 160.362 681.482 160.587 680.733 160.587C679.985 160.587 679.423 160.362 679.049 159.913C678.674 159.449 678.487 158.895 678.487 158.251ZM689.71 168.516V189H685.734V164.697H689.575L689.71 168.516ZM695.752 164.562L695.774 168.426C695.445 168.351 695.145 168.306 694.876 168.291C694.621 168.261 694.322 168.246 693.977 168.246C693.228 168.246 692.57 168.396 692.001 168.695C691.447 168.995 690.967 169.414 690.563 169.953C690.159 170.492 689.837 171.136 689.597 171.885C689.358 172.618 689.193 173.427 689.103 174.311L688.07 174.984C688.07 173.517 688.182 172.139 688.407 170.852C688.646 169.564 689.013 168.426 689.507 167.438C690.002 166.434 690.63 165.656 691.394 165.102C692.173 164.533 693.101 164.248 694.179 164.248C694.419 164.248 694.711 164.285 695.055 164.36C695.415 164.42 695.647 164.488 695.752 164.562ZM700.797 164.697V189H696.844V164.697H700.797ZM696.619 158.251C696.619 157.577 696.807 157.008 697.181 156.544C697.555 156.08 698.117 155.848 698.866 155.848C699.614 155.848 700.176 156.08 700.55 156.544C700.939 157.008 701.134 157.577 701.134 158.251C701.134 158.895 700.939 159.449 700.55 159.913C700.176 160.362 699.614 160.587 698.866 160.587C698.117 160.587 697.555 160.362 697.181 159.913C696.807 159.449 696.619 158.895 696.619 158.251ZM707.842 169.886V189H703.866V164.697H707.617L707.842 169.886ZM706.876 175.928L705.259 175.86C705.244 174.198 705.431 172.663 705.82 171.256C706.225 169.833 706.794 168.598 707.527 167.55C708.276 166.502 709.167 165.693 710.2 165.124C711.233 164.54 712.379 164.248 713.637 164.248C714.625 164.248 715.523 164.413 716.332 164.742C717.141 165.057 717.829 165.566 718.398 166.27C718.967 166.973 719.402 167.887 719.701 169.01C720.016 170.118 720.173 171.473 720.173 173.075V189H716.197V173.03C716.197 171.757 716.055 170.739 715.771 169.976C715.501 169.197 715.082 168.635 714.513 168.291C713.959 167.932 713.255 167.752 712.401 167.752C711.623 167.752 710.896 167.969 710.223 168.403C709.549 168.838 708.957 169.437 708.448 170.2C707.954 170.964 707.565 171.84 707.28 172.828C707.011 173.801 706.876 174.835 706.876 175.928ZM736.09 164.697H739.661V189.202C739.661 191.343 739.287 193.11 738.538 194.503C737.804 195.896 736.778 196.921 735.461 197.58C734.143 198.254 732.623 198.591 730.901 198.591C730.287 198.591 729.516 198.479 728.588 198.254C727.659 198.029 726.731 197.685 725.802 197.221C724.874 196.771 724.11 196.202 723.511 195.514L725.151 192.751C726.005 193.619 726.911 194.241 727.869 194.615C728.827 194.99 729.741 195.177 730.609 195.177C731.642 195.177 732.541 194.99 733.304 194.615C734.068 194.241 734.66 193.627 735.079 192.773C735.498 191.935 735.708 190.812 735.708 189.404V170.043L736.09 164.697ZM722.119 178.017V175.748C722.119 173.742 722.306 172.02 722.68 170.582C723.055 169.13 723.594 167.939 724.298 167.011C725.016 166.067 725.877 165.371 726.881 164.922C727.884 164.473 729.007 164.248 730.25 164.248C731.508 164.248 732.593 164.503 733.507 165.012C734.42 165.521 735.176 166.262 735.775 167.235C736.389 168.194 736.868 169.362 737.213 170.739C737.572 172.102 737.819 173.644 737.954 175.366V178.398C737.819 180.105 737.572 181.64 737.213 183.003C736.868 184.366 736.382 185.526 735.753 186.484C735.139 187.443 734.375 188.176 733.462 188.686C732.548 189.195 731.463 189.449 730.205 189.449C728.977 189.449 727.869 189.217 726.881 188.753C725.892 188.274 725.039 187.562 724.32 186.619C723.616 185.661 723.07 184.47 722.68 183.048C722.306 181.61 722.119 179.933 722.119 178.017ZM726.094 175.748V178.017C726.094 179.364 726.192 180.54 726.386 181.543C726.581 182.531 726.881 183.355 727.285 184.014C727.704 184.658 728.236 185.137 728.88 185.451C729.538 185.766 730.325 185.923 731.238 185.923C732.346 185.923 733.252 185.653 733.956 185.114C734.66 184.575 735.221 183.864 735.64 182.98C736.075 182.082 736.419 181.116 736.674 180.083V173.704C736.524 172.94 736.307 172.207 736.022 171.503C735.753 170.784 735.401 170.148 734.967 169.594C734.532 169.025 734.008 168.576 733.394 168.246C732.795 167.917 732.092 167.752 731.283 167.752C730.37 167.752 729.583 167.917 728.925 168.246C728.266 168.576 727.727 169.07 727.307 169.729C726.888 170.387 726.581 171.218 726.386 172.222C726.192 173.225 726.094 174.4 726.094 175.748Z" fill="black"/>
</svg>
